<svg width="14" height="13" viewBox="0 0 14 13" fill="none" xmlns="http://www.w3.org/2000/svg">
<path d="M0.999995 0.5H13C13.3682 0.5 13.6667 0.79848 13.6667 1.16667V11.8333C13.6667 12.2015 13.3682 12.5 13 12.5H0.999995C0.631808 12.5 0.333328 12.2015 0.333328 11.8333V1.16667C0.333328 0.79848 0.631808 0.5 0.999995 0.5ZM3.66666 8.83333V6.16667L5 7.5L6.33333 6.16667V8.83333H7.66666V4.16667H6.33333L5 5.5L3.66666 4.16667H2.33333V8.83333H3.66666ZM11 6.83333V4.16667H9.66666V6.83333H8.33333L10.3333 8.83333L12.3333 6.83333H11Z" fill="#62748E"/>
</svg>
