<svg width="20" height="20" viewBox="0 0 20 20" fill="none" xmlns="http://www.w3.org/2000/svg">
<path d="M10 0C4.5 0 0 4.5 0 10C0 15.5 4.5 20 10 20C15.5 20 20 15.5 20 10C20 4.5 15.5 0 10 0ZM4.429 15.571C2.929 14.071 2.143 12.071 2.143 10.143L9.929 17.857C7.929 17.786 5.929 17.071 4.429 15.571ZM11.714 17.643L2.357 8.286C3.143 4.786 6.286 2.143 10 2.143C12.643 2.143 14.929 3.429 16.357 5.357L15.286 6.286C14.07 4.643 12.143 3.57 10 3.57C7.214 3.57 4.857 5.356 3.929 7.856L12.143 16.07C14.214 15.356 15.786 13.57 16.286 11.428H12.857V10H17.857C17.857 13.714 15.214 16.857 11.714 17.643Z" fill="#62748E"/>
</svg>
